Coordinates
version=1
nRows=19
nColumns=18
inDegrees=yes

Units are S.I. units (second, meters, Newtons, ...)
If the header above contains a line with 'inDegrees', this indicates whether rotational values are in degrees (yes) or radians (no).

endheader
time	ground_thorax_rot_x	ground_thorax_rot_y	ground_thorax_rot_z	ground_thorax_tx	ground_thorax_ty	ground_thorax_tz	clav_prot	clav_elev	scapula_abduction	scapula_elevation	scapula_upward_rot	scapula_winging	plane_elv	shoulder_elv	axial_rot	elbow_flexion	pro_sup
      3.73000000	      3.30817208	     -4.87600233	     -8.43632251	     -0.00542752	      0.00412035	      0.00261635	    -22.33445801	     -3.98873895	    -13.10211490	     -3.33540521	     11.34935516	      5.70850223	    -21.45557160	     17.40676932	     49.96346582	      0.00000000	     34.32000000
      3.74000000	      3.30901121	     -4.87619409	     -8.43601129	     -0.00546382	      0.00407246	      0.00259092	    -22.33437271	     -3.98911791	    -13.10212229	     -3.33556951	     11.34890355	      5.70872632	    -21.45562915	     17.40619095	     49.96337123	      0.00000000	     34.32000000
      3.75000000	      3.33181998	     -4.88693653	     -8.42876284	     -0.00555550	      0.00409719	      0.00264303	    -22.33154447	     -3.99824024	    -13.10464220	     -3.33770147	     11.33147858	      5.71576677	    -21.45888695	     17.38690061	     49.95978673	      0.00000000	     34.32000000
      3.76000000	      3.33200763	     -4.88787305	     -8.42899396	     -0.00560102	      0.00413393	      0.00256620	    -22.33159166	     -3.99816362	    -13.10499090	     -3.33752530	     11.33103722	      5.71585946	    -21.45899067	     17.38649541	     49.95971378	      0.00000000	     34.32000000
      3.77000000	      3.32905582	     -4.88768379	     -8.40798317	     -0.00556807	      0.00423945	      0.00253261	    -22.32499428	     -4.00707528	    -13.09922715	     -3.34013592	     11.31681228	      5.72184317	    -21.45139803	     17.34947846	     49.95591607	      0.00000000	     34.32000000
      3.78000000	      3.32878319	     -4.88585732	     -8.40650665	     -0.00540215	      0.00423307	      0.00251616	    -22.32448247	     -4.00765936	    -13.09825776	     -3.34052125	     11.31668751	      5.72202455	    -21.45075236	     17.34797254	     49.95583258	      0.00000000	     34.32000000
      3.79000000	      3.32425912	     -4.84351543	     -8.40198478	     -0.00542589	      0.00419081	      0.00252906	    -22.30911201	     -4.01451489	    -13.07900693	     -3.34044535	     11.30033637	      5.72753572	    -21.43977290	     17.31316366	     49.95284998	      0.00000000	     34.32000000
      3.80000000	      3.32471963	     -4.84384077	     -8.40246534	     -0.00547316	      0.00412917	      0.00255232	    -22.30906545	     -4.01449646	    -13.07922518	     -3.34028638	     11.29981274	      5.72766160	    -21.43995127	     17.31315960	     49.95281176	      0.00000000	     34.32000000
      3.81000000	      3.33807735	     -4.86829023	     -8.43095003	     -0.00549011	      0.00408793	      0.00264192	    -22.30768948	     -4.00482519	    -13.09379486	     -3.32578578	     11.27411270	      5.73131784	    -21.45005671	     17.31402306	     49.95117581	      0.00000000	     34.32000000
      3.82000000	      3.33746293	     -4.86941099	     -8.43190276	     -0.00560591	      0.00414777	      0.00262633	    -22.30785573	     -4.00426580	    -13.09428734	     -3.32532993	     11.27399869	      5.73119814	    -21.45026341	     17.31440612	     49.95116687	      0.00000000	     34.32000000
      3.83000000	      3.30508213	     -4.89579716	     -8.43583473	     -0.00560493	      0.00415991	      0.00257605	    -22.31154827	     -3.98986060	    -13.10269050	     -3.31529755	     11.27710443	      5.72630847	    -21.45261426	     17.31843298	     49.95049641	      0.00000000	     34.32000000
      3.84000000	      3.30492493	     -4.89671209	     -8.43612980	     -0.00564910	      0.00422073	      0.00251936	    -22.31155642	     -3.98961367	    -13.10299177	     -3.31500361	     11.27671780	      5.72634357	    -21.45271835	     17.31793442	     49.95043726	      0.00000000	     34.32000000
      3.85000000	      3.25264214	     -4.97516779	     -8.40041949	     -0.00562452	      0.00415632	      0.00257727	    -22.29532134	     -3.98855569	    -13.09756462	     -3.30235641	     11.23671746	      5.73553973	    -21.44132605	     17.23581586	     49.94660672	      0.00000000	     34.32000000
      3.86000000	      3.25385717	     -4.97493570	     -8.39982201	     -0.00557032	      0.00408819	      0.00252754	    -22.29506914	     -3.98918402	    -13.09727372	     -3.30267515	     11.23616456	      5.73585481	    -21.44123345	     17.23508226	     49.94659245	      0.00000000	     34.32000000
      3.87000000	      3.28482804	     -4.95012534	     -8.38958300	     -0.00552729	      0.00416875	      0.00254210	    -22.28147808	     -4.00875335	    -13.07918213	     -3.31181738	     11.21731659	      5.74582366	    -21.43504316	     17.20641315	     49.94666098	      0.00000000	     34.32000000
      3.88000000	      3.27582369	     -4.90544974	     -8.38853919	     -0.00546313	      0.00415347	      0.00243304	    -22.26891506	     -4.01859425	    -13.05487799	     -3.31862532	     11.21723783	      5.74815244	    -21.42272683	     17.19615231	     49.95026267	      0.00000000	     34.32000000
      3.89000000	      3.26283927	     -4.86007159	     -8.39913772	     -0.00542708	      0.00415613	      0.00237725	    -22.25623360	     -4.02336984	    -13.03409454	     -3.32035673	     11.21286137	      5.75007635	    -21.41226459	     17.18649918	     49.95420818	      0.00000000	     34.32000000
      3.90000000	      3.26155731	     -4.85932089	     -8.39961151	     -0.00540726	      0.00422738	      0.00246294	    -22.25613077	     -4.02289616	    -13.03381284	     -3.32009522	     11.21326485	      5.74982787	    -21.41212558	     17.18694466	     49.95427900	      0.00000000	     34.32000000
      3.91000000	      3.22489663	     -4.82072187	     -8.43381554	     -0.00543963	      0.00418176	      0.00242016	    -22.23844833	     -3.99675109	    -13.01422840	     -3.29681358	     11.20560346	      5.74321893	    -21.40372927	     17.18332370	     49.95801146	      0.00000000	     34.32000000
